<?xml version="1.0" encoding="UTF-8"?>
<svg id="Layer_1" xmlns="http://www.w3.org/2000/svg" version="1.1" viewBox="0 0 633.29 128.37">
  <!-- Generator: Adobe Illustrator 30.1.0, SVG Export Plug-In . SVG Version: 2.1.1 Build 136)  -->
  <defs>
    <style>
      .st0 {
        opacity: .75;
      }

      .st1 {
        fill: #fff;
      }
    </style>
  </defs>
  <g class="st0">
    <g>
      <path class="st1" d="M17.61,13.34c-.18-.86-.09-1.54.27-2.03.22-.33.49-.55.82-.67.33-.11.9-.25,1.7-.42,1.07-.28,3.11-1.59,6.11-3.94.38-.37.76-.54,1.15-.52,1.49.08,2.16.97,2.01,2.69-.13.45-.41.81-.84,1.09-2.14,1.44-3.9,2.58-5.28,3.41-1.38.83-2.42,1.4-3.12,1.71-.92.19-1.59.08-2.01-.32-.42-.4-.69-.74-.8-1.02ZM20.55,17.75c-.13-.81-.04-1.43.27-1.85.22-.33.49-.55.82-.67.33-.12.9-.31,1.7-.59,1.07-.28,3.11-1.59,6.11-3.94.38-.37.76-.54,1.15-.52,1.49.08,2.16.97,2.01,2.69-.13.45-.41.81-.84,1.09-2.14,1.44-3.9,2.58-5.28,3.41-1.38.83-2.42,1.4-3.12,1.71-.92.19-1.59.09-2.01-.32-.42-.4-.69-.74-.8-1.02Z"/>
      <path class="st1" d="M22.22,29.85c-2.51,1.64-4.59,2.95-6.24,3.93-1.65.97-2.72,1.47-3.2,1.48-1.21-.09-2-.43-2.38-1.01-.38-.59-.54-1.15-.49-1.68-.05-.88.55-1.64,1.8-2.27.83-.17,1.57-.26,2.24-.29.66-.03,2.35-.89,5.06-2.58-.41-.52-.55-1.14-.42-1.85.19-.75.54-1.29,1.06-1.62.52-.33,1.07-.53,1.65-.59,1.5-.09,2.61.29,3.32,1.13,1.39-.79,3.26-1.77,5.62-2.94.13-.06.24-.12.35-.15.11-.04.21-.07.3-.1.1-.03.19-.04.27-.04.28.03.52.11.73.27.89.62,1.29,1.3,1.2,2.03-.08.62-.78,1.27-2.1,1.93-.82.39-1.71.86-2.68,1.39.94.62,1.5,1.13,1.66,1.53.05.36.07.62.06.78-.03.62-.26,1.07-.7,1.34-.44.27-1.06.45-1.86.53-1.21-.04-2.96-.44-5.25-1.2Z"/>
      <path class="st1" d="M39.64,13.34c-.18-.86-.09-1.54.27-2.03.22-.33.49-.55.82-.67.33-.11.9-.25,1.7-.42,1.07-.28,3.11-1.59,6.11-3.94.38-.37.76-.54,1.15-.52,1.49.08,2.16.97,2.01,2.69-.13.45-.41.81-.84,1.09-2.14,1.44-3.9,2.58-5.28,3.41-1.38.83-2.42,1.4-3.12,1.71-.92.19-1.59.08-2.01-.32-.42-.4-.69-.74-.8-1.02ZM42.58,17.75c-.13-.81-.04-1.43.27-1.85.22-.33.49-.55.82-.67.33-.12.9-.31,1.7-.59,1.07-.28,3.11-1.59,6.11-3.94.38-.37.76-.54,1.15-.52,1.49.08,2.16.97,2.01,2.69-.13.45-.41.81-.84,1.09-2.14,1.44-3.9,2.58-5.28,3.41-1.38.83-2.42,1.4-3.12,1.71-.92.19-1.59.09-2.01-.32-.42-.4-.69-.74-.8-1.02Z"/>
      <path class="st1" d="M44.72,32.54c-1.85,1.41-3.76,2.84-5.73,4.27-1.97,1.43-3.74,2.29-5.31,2.57-.94,0-1.64-.21-2.1-.63-.46-.42-.72-.97-.78-1.64,0-1.03.31-1.72.93-2.06.62-.34,1.14-.49,1.56-.44,1.03.08,2.34-.35,3.93-1.29,1.59-.94,2.67-1.79,3.24-2.57-.37-.43-.39-1.14-.08-2.12.36-.69.85-1.14,1.47-1.36.62-.22,1.05-.32,1.28-.3.65-.05,1.18.04,1.59.29.41.24.73.71.97,1.41.8.23,1.57.33,2.31.31,1.22-.2,1.89-.76,2.01-1.66-.19-1.16-1.13-1.62-2.83-1.38-1.04-.17-1.5-.72-1.36-1.66,0-.68.52-1.3,1.55-1.87.36-.13.69-.2.99-.22.31-.02.89.04,1.76.18.29-.03,1.08-.32,2.35-.88.12,0,.35.1.72.29.36.19.67.54.93,1.05.12.26.19.64.22,1.15.03.51-.3.93-1,1.26.52.38.9.94,1.12,1.67.22.73.16,1.52-.18,2.38-.74,1.26-1.73,2.17-2.96,2.74-1.24.57-2.68.85-4.34.85-.85,0-1.6-.11-2.24-.32Z"/>
      <path class="st1" d="M57.5,45.34c-.18-.87-.09-1.49.27-1.87.22-.33.49-.56.82-.67.33-.11.9-.3,1.7-.57,1.07-.28,3.11-1.59,6.11-3.94.38-.37.76-.54,1.15-.52,1.49.08,2.16.97,2.01,2.69-.13.45-.41.81-.84,1.09-2.14,1.44-3.9,2.58-5.28,3.41s-2.42,1.4-3.12,1.71c-.92.19-1.59.09-2.01-.31-.42-.4-.69-.74-.8-1.02Z"/>
      <path class="st1" d="M70.26,27.21c-2.06,1.56-4.11,3.13-6.14,4.74-2.03,1.61-3.67,2.47-4.92,2.6-.45.01-.89-.19-1.34-.6-.45-.41-.67-.96-.67-1.63.05-1.38.69-2.29,1.93-2.75,1.39-.33,2.61-.83,3.68-1.51,1.06-.68,2.63-1.83,4.71-3.48.9-.64,1.58-1.11,2.03-1.43.45-.32,1.02-.53,1.71-.63,1.12-.06,1.87.35,2.25,1.23.38.89.59,1.91.63,3.08.05,1.58-.28,3.04-.98,4.38-.71,1.34-1.38,2.22-2.01,2.65-.63.43-1.25.65-1.84.66-1.27.01-1.94-.69-1.99-2.1.01-.5.53-1.25,1.57-2.27.39-.32.73-.74.99-1.25s.39-1.07.38-1.67Z"/>
      <path class="st1" d="M101.25,13.82c-.75.62-.75,1.03,0,1.2,1.66.06,2.79.05,3.4-.06,1.15-.06,1.72.53,1.72,1.8.01.92-.29,1.52-.9,1.82-.61.3-1.97.45-4.07.45s-3.54-.37-4.12-1.11c-.58-.74-.87-1.66-.87-2.77.03-1.72,1.02-3.33,2.98-4.82,1.96-1.5,3.48-2.25,4.55-2.26.8.09,1.32.56,1.55,1.41.14.47.16.89.06,1.24-.1.36-.32.7-.67,1.03-1.09.6-2.3,1.29-3.63,2.06Z"/>
      <path class="st1" d="M97.14,31.11c1.3.06,2.13-.13,2.48-.57.14-.31.11-.57-.09-.79-.2-.22-.49-.55-.87-.98-.36-.56-.52-1.12-.5-1.68.22-.65.53-1.12.96-1.41.42-.29,1.28-.87,2.57-1.72,1.29-.85,2.7-1.31,4.23-1.38.6.09,1.06.32,1.38.69.32.37.48.69.48.97.04.85-.17,1.5-.63,1.95-.45.38-1.19.68-2.24.9-1.05.22-1.66.53-1.83.94,0,.09,0,.19.02.29.01.1.09.22.23.36.1.06.28.23.54.5.25.27.4.73.44,1.39-.1,1.4-.9,2.55-2.39,3.45-1.49.9-3.43,1.3-5.81,1.21-1.16,0-2.07-.13-2.74-.39-.67-.26-1.13-.71-1.37-1.35-.11-.28-.16-.61-.14-.97.02-.37.25-.8.68-1.3.52-.41,1.07-.64,1.64-.71.98.27,1.97.47,2.96.61Z"/>
      <path class="st1" d="M122.57,12.33c.29-.37.13-.55-.48-.53-2.32.23-3.76.26-4.34.08-.65-.23-.98-.89-.99-1.97.12-.89.47-1.45,1.06-1.68.59-.23,1.61-.34,3.07-.32,2.5,0,4.08.39,4.76,1.17.68.78,1.01,1.55.99,2.3,0,1.58-1.2,3.22-3.6,4.93-2.4,1.71-4.38,2.55-5.93,2.54-1.26-.13-2-.6-2.22-1.43-.13-.43-.1-.89.08-1.38.18-.48.73-.8,1.64-.95,2.08-.22,4.06-1.13,5.96-2.75Z"/>
      <path class="st1" d="M119.76,27.65c-1.04,0-2.1.03-3.15.09-1.06-.05-1.65-.53-1.78-1.43-.13-.91.25-1.56,1.13-1.97,1.64-.57,2.64-1.03,3-1.38.55-.47,1.04-1.06,1.49-1.76.6-.74,1.42-1.01,2.48-.82.4.06.75.22,1.07.48.32.26.49.6.51,1.05-.01.71-.24,1.33-.67,1.85.5,0,1.25-.18,2.26-.55.16-.09.86-.24,2.1-.46.4-.03.71.16.95.55.24.39.41.87.53,1.43.09.73-.04,1.26-.38,1.6-.1.1-.27.22-.5.34-.88.19-2.37,1.04-4.47,2.53-2.1,1.5-4.76,3.29-7.97,5.39-3.21,2.1-5.46,3.14-6.76,3.14-.45,0-.92-.24-1.41-.72-.5-.48-.74-1.09-.74-1.84.03-1.36.82-2.1,2.39-2.2,1.08.15,2.63-.42,4.63-1.73,2.01-1.3,3.77-2.51,5.3-3.62Z"/>
      <path class="st1" d="M141.13,42.48c-.18-.87-.09-1.49.27-1.87.22-.33.49-.56.82-.67.33-.11.9-.3,1.7-.57,1.07-.28,3.11-1.59,6.11-3.94.38-.37.76-.54,1.15-.52,1.49.08,2.16.97,2.01,2.69-.13.45-.41.81-.84,1.09-2.14,1.44-3.9,2.58-5.28,3.41-1.38.83-2.42,1.4-3.12,1.71-.92.19-1.59.09-2.01-.31-.42-.4-.69-.74-.8-1.02Z"/>
      <path class="st1" d="M140.25,28.66c-1.44,1.4-2.77,2.44-3.98,3.12s-2,1.01-2.36,1.01c-.41-.01-.7-.06-.87-.13-.17-.08-.4-.29-.68-.63-.47-.56-.71-1.06-.71-1.51.15-.61.32-1.05.52-1.33s.86-.65,2.01-1.14c-.42-.14-.8-.6-1.15-1.38-.34-.78-.27-1.66.23-2.64.39-.48.86-.83,1.38-1.03.53-.2,1.19-.35,2-.44.76-.05,1.51.08,2.25.38.73.3,1.42.99,2.05,2.06,2.85.23,6.42.34,10.7.34,4.09-.1,6.71-.72,7.87-1.85,1.16-1.13,1.92-1.8,2.27-2.01.39-.36,1.07-.34,2.02.06.33.13.61.38.84.76.23.38.34.82.34,1.3,0,1.2-.47,2.15-1.4,2.86-.94.71-2.16,1.33-3.66,1.83-1.5.51-4.44.82-8.81.94-4.41,0-8.03-.2-10.87-.59Z"/>
      <path class="st1" d="M188.19,13.03c-.01,1.89-.78,3.38-2.29,4.49-1.52,1.11-3.11,1.66-4.78,1.66-1.49.01-2.7-.38-3.62-1.17-.92-.8-1.42-1.97-1.48-3.52.01-1.44.68-2.84,2-4.2,1.32-1.36,3.07-2.05,5.25-2.07,1.68-.03,2.9.47,3.66,1.47.76,1.01,1.18,2.12,1.27,3.34ZM180.95,15.48c.71,0,1.45-.25,2.2-.75.75-.5,1.14-1.11,1.17-1.81,0-.65-.31-.98-.92-.99-.5.01-1.13.23-1.89.66-.76.43-1.27.95-1.51,1.56-.06.24-.06.5.02.78s.39.46.94.56Z"/>
      <path class="st1" d="M178.25,27.59c-1.67,2.08-3.66,3.81-5.98,5.2-2.32,1.39-3.79,2.14-4.41,2.25-.31.09-.58.1-.82.02-.62-.27-1.11-.58-1.44-.95-.34-.36-.52-.88-.56-1.54.31-1.71,1.49-2.41,3.55-2.1.39-.05,1.16-.45,2.28-1.19,1.13-.74,2.17-1.61,3.12-2.61-.08-.38-.16-.76-.25-1.13.08-.78.39-1.41.94-1.91.55-.5,1.29-.82,2.24-.96.76.05,1.54.43,2.33,1.15.65-.13,1.31-.48,1.99-1.05.37-.29.88-.45,1.53-.48.28.01.59.18.93.51.34.32.53.6.58.83.2.59.33,1.09.38,1.53,1.26-.32,2.12-.91,2.58-1.78.37-.95,1.01-1.36,1.93-1.2,1.16.12,1.77.94,1.83,2.48-.31,1.16-1.2,2.23-2.69,3.21-1.49.98-2.83,1.56-4.03,1.74-1.25.05-2.09-.18-2.52-.7s-.78-1.07-1.05-1.67c-.75.15-1.57.27-2.45.34Z"/>
      <path class="st1" d="M206.01,12.33c.29-.37.13-.55-.48-.53-2.32.23-3.76.26-4.34.08-.65-.23-.98-.89-.99-1.97.12-.89.47-1.45,1.06-1.68.59-.23,1.61-.34,3.07-.32,2.5,0,4.08.39,4.76,1.17.68.78,1.01,1.55.99,2.3,0,1.58-1.2,3.22-3.6,4.93-2.4,1.71-4.38,2.55-5.93,2.54-1.26-.13-2-.6-2.22-1.43-.13-.43-.1-.89.08-1.38.18-.48.73-.8,1.64-.95,2.08-.22,4.06-1.13,5.96-2.75Z"/>
      <path class="st1" d="M206.8,27.21c-2.06,1.56-4.11,3.13-6.14,4.74-2.03,1.61-3.67,2.47-4.92,2.6-.45.01-.89-.19-1.34-.6-.45-.41-.67-.96-.67-1.63.05-1.38.69-2.29,1.93-2.75,1.39-.33,2.61-.83,3.68-1.51,1.06-.68,2.63-1.83,4.71-3.48.9-.64,1.58-1.11,2.03-1.43.45-.32,1.02-.53,1.71-.63,1.12-.06,1.87.35,2.25,1.23.38.89.59,1.91.63,3.08.05,1.58-.28,3.04-.98,4.38-.71,1.34-1.38,2.22-2.01,2.65-.63.43-1.25.65-1.84.66-1.27.01-1.94-.69-1.99-2.1.01-.5.53-1.25,1.57-2.27.39-.32.73-.74.99-1.25.27-.52.39-1.07.38-1.67Z"/>
      <path class="st1" d="M216.23,16.57c-.18-.87-.09-1.54.27-2.03.22-.33.49-.55.82-.67.33-.12.9-.25,1.7-.42,1.07-.28,3.11-1.59,6.11-3.94.38-.37.76-.54,1.15-.52,1.49.08,2.16.97,2.01,2.69-.13.45-.41.81-.84,1.09-2.14,1.44-3.9,2.58-5.28,3.41-1.38.83-2.42,1.4-3.12,1.71-.92.19-1.59.09-2.01-.31-.42-.4-.69-.74-.8-1.02Z"/>
      <path class="st1" d="M221.08,27.61c1.71-.66,3.07-1.35,4.09-2.06,1.02-.71,2.01-1.54,2.96-2.48.51-.28,1.08-.42,1.7-.42.8.08,1.31.36,1.54.84.22.48.26.99.1,1.53-.17.66-1.04,1.52-2.61,2.57-1.57,1.05-3.45,2.14-5.62,3.26-2.17,1.12-4.17,1.7-6.01,1.74-.43,0-.79-.09-1.06-.27-.27-.18-.46-.31-.54-.38-.71-.98-.66-1.94.15-2.87.94-.84,1.47-1.6,1.57-2.27,0-.12.03-.51.08-1.18.01-.75.13-1.41.36-1.97.15-.26.38-.51.7-.75.31-.25.83-.34,1.56-.26,1.45.13,2.14.79,2.06,1.99.03.56-.32,1.56-1.03,3Z"/>
      <path class="st1" d="M257.89,13.11c.53-.65.45-.99-.25-1.03-1.11.05-2,0-2.67-.13-.68-.14-1.02-.79-1.03-1.95.18-.84.54-1.34,1.09-1.51.55-.17,1.57-.25,3.06-.25,1.57.05,2.72.4,3.46,1.04.74.64,1.1,1.41,1.09,2.3-.27,1.91-1.48,3.65-3.64,5.22-2.16,1.57-3.75,2.36-4.79,2.39-.83,0-1.38-.45-1.66-1.36-.12-.54-.13-.96-.04-1.28.09-.32.5-.68,1.22-1.09,1.16-.51,2.55-1.29,4.16-2.35ZM267.24,13.11c.87-.66.78-1.01-.25-1.03-1.11.05-2,0-2.67-.13-.68-.14-1.02-.79-1.03-1.95.04-.76.37-1.25.98-1.45.62-.2,1.67-.3,3.16-.3,1.57.05,2.72.4,3.46,1.04.74.64,1.1,1.41,1.09,2.3-.27,1.91-1.48,3.65-3.64,5.22-2.16,1.57-3.75,2.36-4.79,2.39-.83,0-1.38-.45-1.66-1.36-.12-.54-.13-.96-.04-1.28.09-.32.5-.68,1.22-1.09,1.16-.51,2.55-1.29,4.16-2.35Z"/>
      <path class="st1" d="M258.24,32.54c-1.85,1.41-3.76,2.84-5.73,4.27-1.97,1.43-3.74,2.29-5.31,2.57-.94,0-1.64-.21-2.1-.63-.46-.42-.72-.97-.78-1.64,0-1.03.31-1.72.93-2.06.62-.34,1.14-.49,1.56-.44,1.03.08,2.34-.35,3.93-1.29,1.59-.94,2.67-1.79,3.24-2.57-.37-.43-.39-1.14-.08-2.12.36-.69.85-1.14,1.47-1.36.62-.22,1.05-.32,1.28-.3.65-.05,1.18.04,1.59.29.41.24.73.71.97,1.41.8.23,1.57.33,2.31.31,1.22-.2,1.89-.76,2.01-1.66-.19-1.16-1.13-1.62-2.83-1.38-1.04-.17-1.5-.72-1.36-1.66,0-.68.52-1.3,1.55-1.87.36-.13.69-.2.99-.22.31-.02.89.04,1.76.18.29-.03,1.08-.32,2.35-.88.12,0,.35.1.72.29.36.19.67.54.93,1.05.12.26.19.64.22,1.15.03.51-.3.93-1,1.26.52.38.9.94,1.12,1.67.22.73.16,1.52-.18,2.38-.74,1.26-1.73,2.17-2.96,2.74s-2.68.85-4.34.85c-.85,0-1.6-.11-2.24-.32Z"/>
      <path class="st1" d="M291.77,13.03c-.01,1.89-.78,3.38-2.29,4.49-1.52,1.11-3.11,1.66-4.78,1.66-1.49.01-2.7-.38-3.62-1.17-.92-.8-1.42-1.97-1.48-3.52.01-1.44.68-2.84,2-4.2,1.32-1.36,3.07-2.05,5.25-2.07,1.68-.03,2.9.47,3.66,1.47.76,1.01,1.18,2.12,1.27,3.34ZM284.52,15.48c.71,0,1.45-.25,2.2-.75.75-.5,1.14-1.11,1.17-1.81,0-.65-.31-.98-.92-.99-.5.01-1.13.23-1.89.66-.76.43-1.27.95-1.51,1.56-.06.24-.06.5.02.78s.39.46.94.56Z"/>
      <path class="st1" d="M281.83,27.59c-1.67,2.08-3.66,3.81-5.98,5.2-2.32,1.39-3.79,2.14-4.41,2.25-.31.09-.58.1-.82.02-.62-.27-1.11-.58-1.44-.95-.34-.36-.52-.88-.56-1.54.31-1.71,1.49-2.41,3.55-2.1.39-.05,1.16-.45,2.28-1.19,1.13-.74,2.17-1.61,3.12-2.61-.08-.38-.16-.76-.25-1.13.08-.78.39-1.41.94-1.91.55-.5,1.29-.82,2.24-.96.76.05,1.54.43,2.33,1.15.65-.13,1.31-.48,1.99-1.05.37-.29.88-.45,1.53-.48.28.01.59.18.93.51.34.32.53.6.58.83.2.59.33,1.09.38,1.53,1.26-.32,2.12-.91,2.58-1.78.37-.95,1.01-1.36,1.93-1.2,1.16.12,1.77.94,1.83,2.48-.31,1.16-1.2,2.23-2.69,3.21-1.49.98-2.83,1.56-4.03,1.74-1.25.05-2.09-.18-2.52-.7-.43-.52-.78-1.07-1.05-1.67-.75.15-1.57.27-2.45.34Z"/>
      <path class="st1" d="M300.55,16.57c-.18-.87-.09-1.54.27-2.03.22-.33.49-.55.82-.67.33-.12.9-.25,1.7-.42,1.07-.28,3.11-1.59,6.11-3.94.38-.37.76-.54,1.15-.52,1.49.08,2.16.97,2.01,2.69-.13.45-.41.81-.84,1.09-2.14,1.44-3.9,2.58-5.28,3.41-1.38.83-2.42,1.4-3.12,1.71-.92.19-1.59.09-2.01-.31-.42-.4-.69-.74-.8-1.02Z"/>
      <path class="st1" d="M306.78,27.65c-1.04,0-2.1.03-3.15.09-1.06-.05-1.65-.53-1.78-1.43-.13-.91.25-1.56,1.13-1.97,1.64-.57,2.64-1.03,3-1.38.55-.47,1.04-1.06,1.49-1.76.6-.74,1.42-1.01,2.48-.82.4.06.75.22,1.07.48.32.26.49.6.51,1.05-.01.71-.24,1.33-.67,1.85.5,0,1.25-.18,2.26-.55.16-.09.86-.24,2.1-.46.4-.03.71.16.95.55.24.39.41.87.53,1.43.09.73-.04,1.26-.38,1.6-.1.1-.27.22-.5.34-.88.19-2.37,1.04-4.47,2.53-2.1,1.5-4.76,3.29-7.97,5.39-3.21,2.1-5.46,3.14-6.76,3.14-.45,0-.92-.24-1.41-.72-.5-.48-.74-1.09-.74-1.84.03-1.36.82-2.1,2.39-2.2,1.08.15,2.63-.42,4.63-1.73,2.01-1.3,3.77-2.51,5.3-3.62Z"/>
      <path class="st1" d="M319.03,45.34c-.18-.87-.09-1.49.27-1.87.22-.33.49-.56.82-.67.33-.11.9-.3,1.7-.57,1.07-.28,3.11-1.59,6.11-3.94.38-.37.76-.54,1.15-.52,1.49.08,2.16.97,2.01,2.69-.13.45-.41.81-.84,1.09-2.14,1.44-3.9,2.58-5.28,3.41-1.38.83-2.42,1.4-3.12,1.71-.92.19-1.59.09-2.01-.31-.42-.4-.69-.74-.8-1.02Z"/>
      <path class="st1" d="M323.84,27.71c-.41-.22-.71-.47-.91-.75-.2-.29-.3-.58-.3-.89-.08-1.71.64-2.67,2.15-2.9,1.51-.22,3.03-.33,4.58-.33,1.51.06,2.77.45,3.77,1.15,1,.7,1.48,1.71,1.44,3.04-.05,1.71-2.24,3.72-6.57,6.05-4.33,2.32-7.11,3.25-8.35,2.78-.89-.29-1.35-1.06-1.38-2.29.18-1.29,1.08-2.01,2.69-2.18,1.29.13,3.08-.49,5.38-1.84,2.3-1.36,3.45-2.17,3.45-2.44,0-.22-.77-.24-2.31-.06-.95.13-1.73.33-2.33.61-.46.13-.9.15-1.32.06Z"/>
      <path class="st1" d="M352.43,43.3c-.18-.87-.09-1.54.27-2.03.21-.33.49-.55.82-.67.33-.12.9-.25,1.7-.42,1.07-.28,3.11-1.59,6.11-3.94.38-.37.76-.54,1.15-.52,1.49.08,2.16.97,2.01,2.69-.13.45-.41.81-.84,1.09-2.14,1.44-3.9,2.58-5.28,3.41-1.38.83-2.42,1.4-3.12,1.71-.92.19-1.59.09-2.01-.31-.42-.4-.69-.74-.8-1.02ZM355.38,47.71c-.18-.87-.09-1.49.27-1.87.22-.33.49-.56.82-.67.33-.12.9-.31,1.7-.57,1.07-.28,3.11-1.59,6.11-3.94.38-.37.76-.54,1.15-.52,1.49.08,2.16.97,2.01,2.69-.13.45-.41.81-.84,1.09-2.14,1.44-3.9,2.58-5.28,3.41-1.38.83-2.42,1.4-3.12,1.71-.92.19-1.59.08-2.01-.32-.42-.4-.69-.74-.8-1.02Z"/>
      <path class="st1" d="M362.71,29.85c-2.51,1.64-4.59,2.95-6.24,3.93-1.65.97-2.72,1.47-3.2,1.48-1.21-.09-2-.43-2.38-1.01-.38-.59-.54-1.15-.49-1.68-.05-.88.55-1.64,1.8-2.27.83-.17,1.57-.26,2.24-.29.66-.03,2.35-.89,5.06-2.58-.41-.52-.55-1.14-.42-1.85.19-.75.54-1.29,1.06-1.62.52-.33,1.07-.53,1.65-.59,1.5-.09,2.61.29,3.32,1.13,1.39-.79,3.26-1.77,5.62-2.94.13-.06.24-.12.35-.15.11-.04.21-.07.3-.1.1-.03.19-.04.27-.04.28.03.52.11.73.27.89.62,1.29,1.3,1.2,2.03-.08.62-.78,1.27-2.1,1.93-.82.39-1.71.86-2.68,1.39.94.62,1.5,1.13,1.66,1.53.05.36.07.62.06.78-.03.62-.26,1.07-.7,1.34-.44.27-1.06.45-1.86.53-1.21-.04-2.96-.44-5.25-1.2Z"/>
      <path class="st1" d="M387.36,12.33c.29-.37.13-.55-.48-.53-2.32.23-3.76.26-4.34.08-.65-.23-.98-.89-.99-1.97.12-.89.47-1.45,1.06-1.68.59-.23,1.61-.34,3.07-.32,2.5,0,4.08.39,4.76,1.17s1.01,1.55.99,2.3c0,1.58-1.2,3.22-3.6,4.93-2.4,1.71-4.38,2.55-5.93,2.54-1.26-.13-2-.6-2.22-1.43-.13-.43-.1-.89.08-1.38.18-.48.73-.8,1.64-.95,2.08-.22,4.06-1.13,5.96-2.75Z"/>
      <path class="st1" d="M385.49,24.21c1.41-1.04,3.07-1.61,4.97-1.7,1.16.03,2.12.36,2.89,1,.76.64,1.16,1.62,1.2,2.93-.15,2.05-1.35,3.71-3.6,4.98-2.25,1.27-4.94,1.9-8.07,1.9-2.14-.09-3.83-.55-5.07-1.38-1.24-.83-1.9-1.98-1.96-3.43.06-1.39.68-2.61,1.83-3.67,1.16-1.06,2.53-1.69,4.13-1.89.83-.1,1.5-.08,2.01.08.51.15,1.07.55,1.68,1.18ZM380,28.09c-.08.34.01.63.27.87.26.24.65.38,1.18.43.19-.01.4-.12.63-.32.23-.2.43-.43.62-.68.18-.25.32-.49.42-.73.09-.24.1-.39.01-.47-.38-.36-.78-.53-1.18-.53-.43-.01-.85.12-1.24.39-.4.27-.63.62-.71,1.04ZM385.7,29.47c1.44-.14,2.55-.41,3.33-.82.78-.41,1.18-.89,1.19-1.43,0-.19-.06-.36-.18-.52-.12-.15-.32-.23-.6-.23-.42,0-.86.13-1.31.38-.45.25-.91.64-1.38,1.15-.31.37-.66.86-1.05,1.47Z"/>
      <path class="st1" d="M412.14,12.33c.29-.37.13-.55-.48-.53-2.32.23-3.76.26-4.34.08-.65-.23-.98-.89-.99-1.97.12-.89.47-1.45,1.06-1.68.59-.23,1.61-.34,3.07-.32,2.5,0,4.08.39,4.76,1.17.68.78,1.01,1.55.99,2.3,0,1.58-1.2,3.22-3.6,4.93-2.4,1.71-4.38,2.55-5.93,2.54-1.26-.13-2-.6-2.22-1.43-.13-.43-.1-.89.08-1.38.18-.48.73-.8,1.64-.95,2.08-.22,4.06-1.13,5.96-2.75Z"/>
      <path class="st1" d="M407.61,29.85c-2.51,1.64-4.59,2.95-6.24,3.93-1.65.97-2.72,1.47-3.2,1.48-1.21-.09-2-.43-2.38-1.01-.38-.59-.54-1.15-.49-1.68-.05-.88.55-1.64,1.8-2.27.83-.17,1.57-.26,2.24-.29.66-.03,2.35-.89,5.06-2.58-.41-.52-.55-1.14-.42-1.85.19-.75.54-1.29,1.06-1.62.52-.33,1.07-.53,1.65-.59,1.5-.09,2.61.29,3.32,1.13,1.39-.79,3.26-1.77,5.62-2.94.13-.06.24-.12.35-.15.11-.04.21-.07.3-.1.1-.03.19-.04.27-.04.28.03.52.11.73.27.89.62,1.29,1.3,1.2,2.03-.08.62-.78,1.27-2.1,1.93-.82.39-1.71.86-2.68,1.39.94.62,1.5,1.13,1.66,1.53.05.36.07.62.06.78-.03.62-.26,1.07-.7,1.34-.44.27-1.06.45-1.86.53-1.21-.04-2.96-.44-5.25-1.2Z"/>
      <path class="st1" d="M431.29,12.33c.29-.37.13-.55-.48-.53-2.32.23-3.76.26-4.34.08-.65-.23-.98-.89-.99-1.97.12-.89.47-1.45,1.06-1.68.59-.23,1.61-.34,3.07-.32,2.5,0,4.08.39,4.76,1.17.68.78,1.01,1.55.99,2.3,0,1.58-1.2,3.22-3.6,4.93-2.4,1.71-4.38,2.55-5.93,2.54-1.26-.13-2-.6-2.22-1.43-.13-.43-.1-.89.08-1.38.18-.48.73-.8,1.64-.95,2.08-.22,4.06-1.13,5.96-2.75Z"/>
      <path class="st1" d="M426.96,28.8l-1.3.84c.67.6,1.2,1.18,1.57,1.74.24.51.37.91.37,1.2,0,.29-.01.64-.05,1.03-.01.93-.73,1.88-2.16,2.86-1.43.98-2.69,1.47-3.8,1.47-1.27-.04-2.32-.19-3.12-.47-.81-.27-1.23-.99-1.27-2.15.19-1.41,1.02-2.13,2.48-2.14,1.54.51,2.45.71,2.73.59.28-.12.48-.3.61-.57.05-.13.07-.3.05-.53-.02-.23-.21-.45-.58-.67-.37-.22-.7-.45-1-.7-.3-.25-.45-.7-.45-1.35-.19-1.16,1.26-2.71,4.37-4.64,3.1-1.94,6.02-3.15,8.76-3.65.88.01,1.7.32,2.46.94.76.61,1.29,1.54,1.61,2.79.19,1.92-.36,3.54-1.65,4.85-1.29,1.31-2.92,1.8-4.88,1.45-1.35-.4-2.33-.83-2.95-1.29-.62-.46-1.21-1-1.79-1.61ZM430.86,26.94c.43.26.79.45,1.08.58.29.13.58.19.87.18.57-.03.95-.11,1.12-.26.17-.15.29-.38.35-.7.04-.39-.07-.65-.34-.78-.26-.13-.65-.18-1.16-.17-.18.01-.82.39-1.93,1.15Z"/>
      <path class="st1" d="M452.6,12.33c.29-.37.13-.55-.48-.53-2.32.23-3.76.26-4.34.08-.65-.23-.98-.89-.99-1.97.12-.89.47-1.45,1.06-1.68.59-.23,1.61-.34,3.07-.32,2.5,0,4.08.39,4.76,1.17.68.78,1.01,1.55.99,2.3,0,1.58-1.2,3.22-3.6,4.93-2.4,1.71-4.38,2.55-5.93,2.54-1.26-.13-2-.6-2.22-1.43-.13-.43-.1-.89.08-1.38.18-.48.73-.8,1.64-.95,2.08-.22,4.06-1.13,5.96-2.75Z"/>
      <path class="st1" d="M453.38,27.21c-2.06,1.56-4.11,3.13-6.14,4.74-2.03,1.61-3.67,2.47-4.92,2.6-.45.01-.89-.19-1.34-.6-.45-.41-.67-.96-.67-1.63.05-1.38.69-2.29,1.93-2.75,1.39-.33,2.61-.83,3.68-1.51,1.06-.68,2.63-1.83,4.71-3.48.9-.64,1.58-1.11,2.03-1.43.45-.32,1.02-.53,1.71-.63,1.12-.06,1.87.35,2.25,1.23.38.89.59,1.91.63,3.08.05,1.58-.28,3.04-.98,4.38s-1.38,2.22-2.01,2.65c-.63.43-1.25.65-1.84.66-1.27.01-1.94-.69-1.99-2.1.01-.5.53-1.25,1.57-2.27.39-.32.73-.74.99-1.25s.39-1.07.38-1.67Z"/>
      <path class="st1" d="M487.78,12.33c.29-.37.13-.55-.48-.53-2.32.23-3.76.26-4.34.08-.65-.23-.98-.89-.99-1.97.12-.89.47-1.45,1.06-1.68.59-.23,1.61-.34,3.07-.32,2.5,0,4.08.39,4.76,1.17s1.01,1.55.99,2.3c0,1.58-1.2,3.22-3.6,4.93-2.4,1.71-4.38,2.55-5.93,2.54-1.26-.13-2-.6-2.22-1.43-.13-.43-.1-.89.08-1.38.18-.48.73-.8,1.64-.95,2.08-.22,4.06-1.13,5.96-2.75Z"/>
      <path class="st1" d="M484.97,27.65c-1.04,0-2.1.03-3.15.09-1.06-.05-1.65-.53-1.78-1.43-.13-.91.25-1.56,1.13-1.97,1.64-.57,2.64-1.03,3-1.38.55-.47,1.04-1.06,1.49-1.76.6-.74,1.42-1.01,2.48-.82.4.06.75.22,1.07.48.32.26.49.6.51,1.05-.01.71-.24,1.33-.67,1.85.5,0,1.25-.18,2.26-.55.16-.09.86-.24,2.1-.46.4-.03.71.16.95.55.24.39.41.87.53,1.43.09.73-.04,1.26-.38,1.6-.1.1-.27.22-.5.34-.88.19-2.37,1.04-4.47,2.53-2.1,1.5-4.76,3.29-7.97,5.39-3.21,2.1-5.46,3.14-6.76,3.14-.45,0-.92-.24-1.41-.72-.5-.48-.74-1.09-.74-1.84.03-1.36.82-2.1,2.39-2.2,1.08.15,2.63-.42,4.63-1.73,2.01-1.3,3.77-2.51,5.3-3.62Z"/>
      <path class="st1" d="M508.24,11.37c.29-.37.13-.55-.48-.53-2.32.23-3.76.26-4.34.08-.65-.23-.98-.89-.99-1.97.12-.89.47-1.45,1.06-1.68.59-.23,1.61-.34,3.07-.32,2.5,0,4.08.39,4.76,1.17s1.01,1.55.99,2.3c0,1.58-1.2,3.22-3.6,4.93-2.4,1.71-4.38,2.55-5.93,2.54-1.26-.13-2-.6-2.22-1.43-.13-.43-.1-.89.08-1.38.18-.48.73-.8,1.64-.95,2.08-.22,4.06-1.13,5.96-2.75Z"/>
      <path class="st1" d="M507.04,31.01c.68.15,1.67.22,2.98.2,1.31-.02,2.14.02,2.48.1.53.11.9.36,1.1.73.2.37.27.82.22,1.34-.12,1.22-.87,1.92-2.25,2.1-.73.06-1.83.01-3.32-.16-1.48-.17-3.07-.43-4.75-.77-1.94-.5-2.79-1.42-2.56-2.77.14-.65.69-1.28,1.65-1.89.96-.61,1.51-1.06,1.63-1.34.14-.15-.2-.28-1.03-.38-.99-.14-1.72-.37-2.18-.69-.45-.28-.64-.81-.59-1.58.05-.77.51-1.56,1.39-2.36l1.66-1.55c.64-.93,1.26-1.38,1.87-1.34.28-.04.64,0,1.09.1.45.11.8.37,1.07.77.22.26.31.69.27,1.29-.04.61-.71,1.22-2.01,1.84,1.06.22,1.89.48,2.51.79.62.31,1.03.9,1.23,1.75,0,.73-.25,1.37-.75,1.93-.5.56-1.08,1.18-1.73,1.87Z"/>
      <path class="st1" d="M520.79,16.57c-.18-.87-.09-1.54.27-2.03.22-.33.49-.55.82-.67.33-.12.9-.25,1.7-.42,1.07-.28,3.11-1.59,6.11-3.94.38-.37.76-.54,1.15-.52,1.49.08,2.16.97,2.01,2.69-.13.45-.41.81-.84,1.09-2.14,1.44-3.9,2.58-5.28,3.41-1.38.83-2.42,1.4-3.12,1.71-.92.19-1.59.09-2.01-.31-.42-.4-.69-.74-.8-1.02Z"/>
      <path class="st1" d="M523.62,27.71c-.41-.22-.71-.47-.91-.75-.2-.29-.3-.58-.3-.89-.08-1.71.64-2.67,2.15-2.9,1.51-.22,3.03-.33,4.58-.33,1.51.06,2.77.45,3.77,1.15,1,.7,1.48,1.71,1.44,3.04-.05,1.71-2.24,3.72-6.57,6.05-4.33,2.32-7.11,3.25-8.35,2.78-.89-.29-1.35-1.06-1.38-2.29.18-1.29,1.08-2.01,2.69-2.18,1.29.13,3.08-.49,5.38-1.84,2.3-1.36,3.45-2.17,3.45-2.44,0-.22-.77-.24-2.31-.06-.95.13-1.73.33-2.33.61-.46.13-.9.15-1.32.06Z"/>
      <path class="st1" d="M557.95,13.03c-.01,1.89-.78,3.38-2.29,4.49-1.52,1.11-3.11,1.66-4.78,1.66-1.49.01-2.7-.38-3.62-1.17-.92-.8-1.42-1.97-1.48-3.52.01-1.44.68-2.84,2-4.2,1.32-1.36,3.07-2.05,5.25-2.07,1.68-.03,2.9.47,3.66,1.47.76,1.01,1.18,2.12,1.27,3.34ZM550.71,15.48c.71,0,1.45-.25,2.2-.75.75-.5,1.14-1.11,1.17-1.81,0-.65-.31-.98-.92-.99-.5.01-1.13.23-1.89.66-.76.43-1.27.95-1.51,1.56-.06.24-.06.5.02.78s.39.46.94.56Z"/>
      <path class="st1" d="M548.01,27.59c-1.67,2.08-3.66,3.81-5.98,5.2-2.32,1.39-3.79,2.14-4.41,2.25-.31.09-.58.1-.82.02-.62-.27-1.11-.58-1.44-.95-.34-.36-.52-.88-.56-1.54.31-1.71,1.49-2.41,3.55-2.1.39-.05,1.16-.45,2.28-1.19,1.13-.74,2.17-1.61,3.12-2.61-.08-.38-.16-.76-.25-1.13.08-.78.39-1.41.94-1.91.55-.5,1.29-.82,2.24-.96.76.05,1.54.43,2.33,1.15.65-.13,1.31-.48,1.99-1.05.37-.29.88-.45,1.53-.48.28.01.59.18.93.51.34.32.53.6.58.83.2.59.33,1.09.38,1.53,1.26-.32,2.12-.91,2.58-1.78.37-.95,1.01-1.36,1.93-1.2,1.16.12,1.77.94,1.83,2.48-.31,1.16-1.2,2.23-2.69,3.21-1.49.98-2.83,1.56-4.03,1.74-1.25.05-2.09-.18-2.52-.7-.43-.52-.78-1.07-1.05-1.67-.75.15-1.57.27-2.45.34Z"/>
      <path class="st1" d="M577.68,12.33c.29-.37.13-.55-.48-.53-2.32.23-3.76.26-4.34.08-.65-.23-.98-.89-.99-1.97.12-.89.47-1.45,1.06-1.68.59-.23,1.61-.34,3.07-.32,2.5,0,4.08.39,4.76,1.17.68.78,1.01,1.55.99,2.3,0,1.58-1.2,3.22-3.6,4.93-2.4,1.71-4.38,2.55-5.93,2.54-1.26-.13-2-.6-2.22-1.43-.13-.43-.1-.89.08-1.38.18-.48.73-.8,1.64-.95,2.08-.22,4.06-1.13,5.96-2.75Z"/>
      <path class="st1" d="M573.63,32.54c-1.85,1.41-3.76,2.84-5.73,4.27-1.97,1.43-3.74,2.29-5.31,2.57-.94,0-1.64-.21-2.1-.63-.46-.42-.72-.97-.78-1.64,0-1.03.31-1.72.93-2.06.62-.34,1.14-.49,1.56-.44,1.03.08,2.34-.35,3.93-1.29,1.59-.94,2.67-1.79,3.24-2.57-.37-.43-.39-1.14-.08-2.12.36-.69.85-1.14,1.47-1.36.62-.22,1.05-.32,1.28-.3.65-.05,1.18.04,1.59.29.41.24.73.71.97,1.41.8.23,1.57.33,2.31.31,1.22-.2,1.89-.76,2.01-1.66-.19-1.16-1.13-1.62-2.83-1.38-1.04-.17-1.5-.72-1.36-1.66,0-.68.52-1.3,1.55-1.87.36-.13.69-.2.99-.22.31-.02.89.04,1.76.18.29-.03,1.08-.32,2.35-.88.12,0,.35.1.72.29.36.19.67.54.93,1.05.12.26.19.64.22,1.15.03.51-.3.93-1,1.26.52.38.9.94,1.12,1.67.22.73.16,1.52-.18,2.38-.74,1.26-1.73,2.17-2.96,2.74s-2.68.85-4.34.85c-.85,0-1.6-.11-2.24-.32Z"/>
      <path class="st1" d="M589.35,16.57c-.18-.87-.09-1.54.27-2.03.22-.33.49-.55.82-.67.33-.12.9-.25,1.7-.42,1.07-.28,3.11-1.59,6.11-3.94.38-.37.76-.54,1.15-.52,1.49.08,2.16.97,2.01,2.69-.13.45-.41.81-.84,1.09-2.14,1.44-3.9,2.58-5.28,3.41-1.38.83-2.42,1.4-3.12,1.71-.92.19-1.59.09-2.01-.31-.42-.4-.69-.74-.8-1.02Z"/>
      <path class="st1" d="M595.58,27.65c-1.04,0-2.1.03-3.15.09-1.06-.05-1.65-.53-1.78-1.43-.13-.91.25-1.56,1.13-1.97,1.64-.57,2.64-1.03,3-1.38.55-.47,1.04-1.06,1.49-1.76.6-.74,1.42-1.01,2.48-.82.4.06.75.22,1.07.48.32.26.49.6.51,1.05-.01.71-.24,1.33-.67,1.85.5,0,1.25-.18,2.26-.55.16-.09.86-.24,2.1-.46.4-.03.71.16.95.55.24.39.41.87.53,1.43.09.73-.04,1.26-.38,1.6-.1.1-.27.22-.5.34-.88.19-2.37,1.04-4.47,2.53-2.1,1.5-4.76,3.29-7.97,5.39-3.21,2.1-5.46,3.14-6.76,3.14-.45,0-.92-.24-1.41-.72-.5-.48-.74-1.09-.74-1.84.03-1.36.82-2.1,2.39-2.2,1.08.15,2.63-.42,4.63-1.73,2.01-1.3,3.77-2.51,5.3-3.62Z"/>
      <path class="st1" d="M607.83,45.34c-.18-.87-.09-1.49.27-1.87.22-.33.49-.56.82-.67.33-.11.9-.3,1.7-.57,1.07-.28,3.11-1.59,6.11-3.94.38-.37.76-.54,1.15-.52,1.49.08,2.16.97,2.01,2.69-.13.45-.41.81-.84,1.09-2.14,1.44-3.9,2.58-5.28,3.41s-2.42,1.4-3.12,1.71c-.92.19-1.59.09-2.01-.31-.42-.4-.69-.74-.8-1.02Z"/>
      <path class="st1" d="M612.64,27.71c-.41-.22-.71-.47-.91-.75-.2-.29-.3-.58-.3-.89-.08-1.71.64-2.67,2.15-2.9,1.51-.22,3.03-.33,4.58-.33,1.51.06,2.77.45,3.77,1.15,1,.7,1.48,1.71,1.44,3.04-.05,1.71-2.24,3.72-6.57,6.05-4.33,2.32-7.11,3.25-8.35,2.78-.89-.29-1.35-1.06-1.38-2.29.18-1.29,1.08-2.01,2.69-2.18,1.29.13,3.08-.49,5.38-1.84,2.3-1.36,3.45-2.17,3.45-2.44,0-.22-.77-.24-2.31-.06-.95.13-1.73.33-2.33.61-.46.13-.9.15-1.32.06Z"/>
    </g>
    <g>
      <path class="st1" d="M14.28,75.81c-.92-.4-1.64-.97-2.16-1.71-.53-.74-.79-1.6-.79-2.58h3c.07.74.36,1.35.87,1.82.52.48,1.24.71,2.18.71s1.72-.23,2.26-.7c.54-.47.81-1.07.81-1.81,0-.58-.17-1.04-.5-1.4-.34-.36-.75-.64-1.26-.84-.5-.2-1.19-.41-2.08-.64-1.12-.29-2.02-.59-2.72-.9-.7-.3-1.29-.78-1.78-1.41-.49-.64-.74-1.49-.74-2.56,0-.98.25-1.84.74-2.58.49-.74,1.18-1.3,2.07-1.7.89-.39,1.91-.59,3.08-.59,1.66,0,3.01.41,4.07,1.24,1.06.83,1.64,1.96,1.76,3.41h-3.1c-.05-.62-.35-1.16-.89-1.6-.54-.44-1.25-.66-2.14-.66-.8,0-1.46.2-1.97.61-.51.41-.76,1-.76,1.77,0,.53.16.96.48,1.29.32.34.73.6,1.22.8.49.2,1.17.41,2.02.64,1.13.31,2.05.62,2.77.94.71.31,1.32.79,1.82,1.44.5.65.75,1.51.75,2.6,0,.87-.23,1.69-.7,2.46-.47.77-1.15,1.39-2.04,1.86-.9.47-1.95.7-3.16.7-1.15,0-2.18-.2-3.1-.6Z"/>
      <path class="st1" d="M30.55,61.4v5.02h5.91v2.29h-5.91v5.24h6.64v2.29h-9.45v-17.13h9.45v2.29h-6.64Z"/>
      <path class="st1" d="M42,63.15c.78-1.33,1.84-2.37,3.17-3.11,1.34-.75,2.8-1.12,4.39-1.12,1.82,0,3.44.45,4.86,1.34,1.42.89,2.45,2.16,3.09,3.8h-3.37c-.44-.9-1.06-1.57-1.85-2.02-.79-.44-1.7-.67-2.73-.67-1.13,0-2.14.26-3.03.76-.89.51-1.58,1.24-2.08,2.19-.5.95-.75,2.06-.75,3.32s.25,2.37.75,3.32c.5.95,1.19,1.69,2.08,2.2.89.52,1.9.78,3.03.78,1.03,0,1.94-.22,2.73-.67.79-.44,1.4-1.12,1.85-2.02h3.37c-.64,1.64-1.67,2.9-3.09,3.79-1.42.89-3.04,1.33-4.86,1.33-1.61,0-3.08-.37-4.4-1.12-1.33-.75-2.38-1.79-3.16-3.11-.78-1.33-1.17-2.83-1.17-4.5s.39-3.17,1.17-4.5Z"/>
      <path class="st1" d="M70.81,76.24l-3.94-6.84h-2.14v6.84h-2.8v-17.1h5.9c1.31,0,2.42.23,3.34.69.91.46,1.59,1.07,2.04,1.85.45.77.68,1.63.68,2.58,0,1.12-.32,2.13-.97,3.04-.65.91-1.64,1.53-2.99,1.86l4.23,7.09h-3.35ZM64.73,67.16h3.1c1.05,0,1.84-.26,2.38-.79.53-.52.8-1.23.8-2.12s-.26-1.58-.79-2.08c-.53-.5-1.32-.75-2.39-.75h-3.1v5.73Z"/>
      <path class="st1" d="M81.41,61.4v5.02h5.91v2.29h-5.91v5.24h6.64v2.29h-9.45v-17.13h9.45v2.29h-6.64Z"/>
      <path class="st1" d="M103.68,59.14v2.29h-4.55v14.81h-2.8v-14.81h-4.58v-2.29h11.93Z"/>
      <path class="st1" d="M117.95,72.74h-7.16l-1.23,3.49h-2.93l6.13-17.13h3.25l6.13,17.13h-2.95l-1.23-3.49ZM117.17,70.46l-2.78-7.95-2.81,7.95h5.59Z"/>
      <path class="st1" d="M134.81,76.24l-3.94-6.84h-2.14v6.84h-2.8v-17.1h5.9c1.31,0,2.42.23,3.34.69.91.46,1.59,1.07,2.04,1.85.45.77.68,1.63.68,2.58,0,1.12-.32,2.13-.97,3.04s-1.64,1.53-2.99,1.86l4.23,7.09h-3.35ZM128.73,67.16h3.1c1.05,0,1.84-.26,2.38-.79.53-.52.8-1.23.8-2.12s-.26-1.58-.79-2.08c-.53-.5-1.32-.75-2.39-.75h-3.1v5.73Z"/>
      <path class="st1" d="M145.41,59.14v17.1h-2.8v-17.1h2.8Z"/>
      <path class="st1" d="M160.54,72.74h-7.16l-1.23,3.49h-2.93l6.13-17.13h3.25l6.13,17.13h-2.95l-1.23-3.49ZM159.76,70.46l-2.78-7.95-2.81,7.95h5.59Z"/>
      <path class="st1" d="M179.57,59.14v2.29h-4.55v14.81h-2.8v-14.81h-4.58v-2.29h11.93Z"/>
      <path class="st1" d="M194.46,75.29c-1.34-.75-2.39-1.79-3.17-3.13-.78-1.34-1.17-2.84-1.17-4.51s.39-3.17,1.17-4.5c.78-1.33,1.84-2.37,3.17-3.11,1.34-.75,2.8-1.12,4.39-1.12s3.08.37,4.42,1.12c1.34.75,2.39,1.78,3.16,3.11.77,1.33,1.16,2.83,1.16,4.5s-.39,3.18-1.16,4.51c-.77,1.34-1.83,2.38-3.16,3.13-1.34.75-2.81,1.12-4.42,1.12s-3.06-.37-4.39-1.12ZM201.88,73.2c.89-.52,1.58-1.25,2.08-2.21.5-.96.75-2.07.75-3.34s-.25-2.37-.75-3.32c-.5-.95-1.19-1.68-2.08-2.19-.89-.51-1.9-.76-3.03-.76s-2.14.26-3.03.76c-.89.51-1.58,1.24-2.08,2.19-.5.95-.75,2.06-.75,3.32s.25,2.37.75,3.34c.5.96,1.19,1.7,2.08,2.21.89.52,1.9.78,3.03.78s2.14-.26,3.03-.78Z"/>
      <path class="st1" d="M221.55,59.14v2.29h-7.26v5.04h5.66v2.29h-5.66v7.48h-2.8v-17.1h10.06Z"/>
      <path class="st1" d="M243.86,59.14v2.29h-4.55v14.81h-2.8v-14.81h-4.58v-2.29h11.93Z"/>
      <path class="st1" d="M261.48,59.14v17.1h-2.81v-7.48h-8.05v7.48h-2.8v-17.1h2.8v7.33h8.05v-7.33h2.81Z"/>
      <path class="st1" d="M269.11,61.4v5.02h5.91v2.29h-5.91v5.24h6.64v2.29h-9.45v-17.13h9.45v2.29h-6.64Z"/>
      <path class="st1" d="M301.91,76.24h-2.8l-8.44-12.77v12.77h-2.8v-17.13h2.8l8.44,12.75v-12.75h2.8v17.13Z"/>
      <path class="st1" d="M310.14,75.29c-1.34-.75-2.39-1.79-3.17-3.13-.78-1.34-1.17-2.84-1.17-4.51s.39-3.17,1.17-4.5c.78-1.33,1.84-2.37,3.17-3.11,1.34-.75,2.8-1.12,4.39-1.12s3.08.37,4.42,1.12c1.34.75,2.39,1.78,3.16,3.11.77,1.33,1.16,2.83,1.16,4.5s-.39,3.18-1.16,4.51c-.77,1.34-1.83,2.38-3.16,3.13-1.34.75-2.81,1.12-4.42,1.12s-3.06-.37-4.39-1.12ZM317.56,73.2c.89-.52,1.58-1.25,2.08-2.21.5-.96.75-2.07.75-3.34s-.25-2.37-.75-3.32c-.5-.95-1.19-1.68-2.08-2.19-.89-.51-1.9-.76-3.03-.76s-2.14.26-3.03.76c-.89.51-1.58,1.24-2.08,2.19-.5.95-.75,2.06-.75,3.32s.25,2.37.75,3.34c.5.96,1.19,1.7,2.08,2.21.89.52,1.9.78,3.03.78s2.14-.26,3.03-.78Z"/>
      <path class="st1" d="M336.04,76.24l-3.94-6.84h-2.14v6.84h-2.8v-17.1h5.9c1.31,0,2.42.23,3.34.69.91.46,1.59,1.07,2.04,1.85.45.77.68,1.63.68,2.58,0,1.12-.32,2.13-.97,3.04s-1.64,1.53-2.99,1.86l4.23,7.09h-3.35ZM329.96,67.16h3.1c1.05,0,1.84-.26,2.38-.79.53-.52.8-1.23.8-2.12s-.26-1.58-.79-2.08c-.53-.5-1.32-.75-2.39-.75h-3.1v5.73Z"/>
      <path class="st1" d="M354.89,59.14v2.29h-4.55v14.81h-2.8v-14.81h-4.58v-2.29h11.93Z"/>
      <path class="st1" d="M372.51,59.14v17.1h-2.81v-7.48h-8.05v7.48h-2.8v-17.1h2.8v7.33h8.05v-7.33h2.81Z"/>
      <path class="st1" d="M402.87,59.14v17.1h-2.8v-11.71l-5.22,11.71h-1.94l-5.24-11.71v11.71h-2.8v-17.1h3.03l6,13.41,5.98-13.41h3Z"/>
      <path class="st1" d="M410.5,59.14v17.1h-2.8v-17.1h2.8Z"/>
      <path class="st1" d="M418.12,73.97h5.78v2.26h-8.59v-17.1h2.8v14.84Z"/>
      <path class="st1" d="M437.69,72.74h-7.16l-1.23,3.49h-2.93l6.13-17.13h3.25l6.13,17.13h-2.95l-1.23-3.49ZM436.9,70.46l-2.78-7.95-2.81,7.95h5.59Z"/>
      <path class="st1" d="M456.03,60.18c1.37.7,2.43,1.7,3.17,3,.75,1.3,1.12,2.83,1.12,4.56s-.37,3.25-1.12,4.53c-.75,1.28-1.8,2.26-3.17,2.94-1.37.68-2.97,1.02-4.79,1.02h-5.58v-17.1h5.58c1.82,0,3.42.35,4.79,1.05ZM455.85,72.33c1.07-1.08,1.6-2.61,1.6-4.58s-.53-3.53-1.6-4.65c-1.07-1.12-2.6-1.67-4.6-1.67h-2.78v12.53h2.78c2,0,3.54-.54,4.6-1.62Z"/>
      <path class="st1" d="M477.89,59.14v17.1h-2.81v-7.48h-8.05v7.48h-2.8v-17.1h2.8v7.33h8.05v-7.33h2.81Z"/>
      <path class="st1" d="M485.5,59.14v10.9c0,1.3.34,2.27,1.02,2.93.68.66,1.63.98,2.84.98s2.18-.33,2.87-.98c.68-.66,1.02-1.63,1.02-2.93v-10.9h2.81v10.85c0,1.39-.3,2.58-.91,3.54-.61.97-1.42,1.69-2.44,2.16-1.02.48-2.14.71-3.37.71s-2.35-.24-3.36-.71c-1.01-.48-1.81-1.2-2.4-2.16-.59-.97-.89-2.15-.89-3.54v-10.85h2.81Z"/>
      <path class="st1" d="M514.88,76.24h-2.8l-8.44-12.77v12.77h-2.8v-17.13h2.8l8.44,12.75v-12.75h2.8v17.13Z"/>
      <path class="st1" d="M537.71,59.14v17.1h-2.8v-11.71l-5.22,11.71h-1.94l-5.24-11.71v11.71h-2.8v-17.1h3.03l6,13.41,5.98-13.41h3Z"/>
      <path class="st1" d="M552.84,72.74h-7.16l-1.23,3.49h-2.93l6.13-17.13h3.25l6.13,17.13h-2.95l-1.23-3.49ZM552.06,70.46l-2.78-7.95-2.81,7.95h5.59Z"/>
      <path class="st1" d="M571.19,60.18c1.37.7,2.43,1.7,3.17,3,.75,1.3,1.12,2.83,1.12,4.56s-.37,3.25-1.12,4.53c-.75,1.28-1.8,2.26-3.17,2.94-1.37.68-2.97,1.02-4.79,1.02h-5.58v-17.1h5.58c1.82,0,3.42.35,4.79,1.05ZM571,72.33c1.07-1.08,1.6-2.61,1.6-4.58s-.53-3.53-1.6-4.65c-1.07-1.12-2.6-1.67-4.6-1.67h-2.78v12.53h2.78c2,0,3.54-.54,4.6-1.62Z"/>
      <path class="st1" d="M582.18,59.14v10.9c0,1.3.34,2.27,1.02,2.93.68.66,1.63.98,2.84.98s2.18-.33,2.87-.98c.68-.66,1.02-1.63,1.02-2.93v-10.9h2.81v10.85c0,1.39-.3,2.58-.91,3.54-.61.97-1.42,1.69-2.44,2.16s-2.14.71-3.37.71-2.35-.24-3.36-.71-1.81-1.2-2.4-2.16c-.59-.97-.89-2.15-.89-3.54v-10.85h2.81Z"/>
      <path class="st1" d="M600.31,73.97h5.78v2.26h-8.59v-17.1h2.8v14.84Z"/>
      <path class="st1" d="M612.34,59.14v10.9c0,1.3.34,2.27,1.02,2.93.68.66,1.63.98,2.84.98s2.18-.33,2.87-.98c.68-.66,1.02-1.63,1.02-2.93v-10.9h2.81v10.85c0,1.39-.3,2.58-.91,3.54-.61.97-1.42,1.69-2.44,2.16s-2.14.71-3.37.71-2.35-.24-3.36-.71c-1.01-.48-1.81-1.2-2.4-2.16-.59-.97-.89-2.15-.89-3.54v-10.85h2.81Z"/>
      <path class="st1" d="M48.11,90.14v32.13h-6.45v-20.9l-8.61,20.9h-4.88l-8.66-20.9v20.9h-6.44v-32.13h7.32l10.22,23.89,10.22-23.89h7.27Z"/>
      <path class="st1" d="M68.14,90.14v32.13h-6.44v-32.13h6.44Z"/>
      <path class="st1" d="M88.16,117.16h10.59v5.11h-17.03v-32.13h6.44v27.02Z"/>
      <path class="st1" d="M129.78,116.15h-12.8l-2.12,6.12h-6.77l11.55-32.18h7.5l11.55,32.18h-6.81l-2.12-6.12ZM128.03,110.99l-4.65-13.44-4.65,13.44h9.3Z"/>
      <path class="st1" d="M177.75,122.27h-6.44l-14.59-22.05v22.05h-6.44v-32.18h6.44l14.59,22.1v-22.1h6.44v32.18Z"/>
      <path class="st1" d="M211.47,92.12c2.56,1.32,4.54,3.2,5.94,5.64,1.4,2.44,2.09,5.27,2.09,8.49s-.7,6.04-2.09,8.45c-1.4,2.41-3.38,4.27-5.94,5.59-2.56,1.32-5.53,1.98-8.91,1.98h-11.23v-32.13h11.23c3.37,0,6.34.66,8.91,1.98ZM210.15,114.03c1.84-1.84,2.76-4.44,2.76-7.78s-.92-5.96-2.76-7.85c-1.84-1.89-4.45-2.83-7.82-2.83h-4.56v21.22h4.56c3.37,0,5.98-.92,7.82-2.76Z"/>
      <path class="st1" d="M258.22,90.14v32.13h-6.45v-13.67h-13.76v13.67h-6.44v-32.13h6.44v13.21h13.76v-13.21h6.45Z"/>
      <path class="st1" d="M278.42,120.48c-2.52-1.41-4.51-3.37-5.98-5.87-1.47-2.5-2.21-5.33-2.21-8.49s.74-5.95,2.21-8.45c1.47-2.5,3.47-4.46,5.98-5.87,2.52-1.41,5.28-2.12,8.29-2.12s5.81.71,8.31,2.12c2.5,1.41,4.48,3.37,5.94,5.87,1.46,2.5,2.19,5.32,2.19,8.45s-.73,5.99-2.19,8.49c-1.46,2.5-3.45,4.46-5.96,5.87-2.52,1.41-5.28,2.12-8.29,2.12s-5.77-.71-8.29-2.12ZM291.82,115.53c1.47-.87,2.62-2.13,3.45-3.75.83-1.63,1.24-3.51,1.24-5.66s-.41-4.03-1.24-5.64c-.83-1.61-1.98-2.85-3.45-3.71-1.47-.86-3.18-1.29-5.11-1.29s-3.65.43-5.13,1.29c-1.49.86-2.65,2.1-3.48,3.71-.83,1.61-1.24,3.49-1.24,5.64s.41,4.04,1.24,5.66c.83,1.63,1.99,2.88,3.48,3.75,1.49.87,3.2,1.31,5.13,1.31s3.64-.44,5.11-1.31Z"/>
      <path class="st1" d="M321.79,120.48c-2.52-1.41-4.51-3.37-5.98-5.87-1.47-2.5-2.21-5.33-2.21-8.49s.74-5.95,2.21-8.45c1.47-2.5,3.47-4.46,5.98-5.87,2.52-1.41,5.28-2.12,8.29-2.12s5.81.71,8.31,2.12c2.5,1.41,4.48,3.37,5.94,5.87,1.46,2.5,2.19,5.32,2.19,8.45s-.73,5.99-2.19,8.49c-1.46,2.5-3.45,4.46-5.96,5.87-2.52,1.41-5.28,2.12-8.29,2.12s-5.77-.71-8.29-2.12ZM335.18,115.53c1.47-.87,2.62-2.13,3.45-3.75.83-1.63,1.24-3.51,1.24-5.66s-.41-4.03-1.24-5.64c-.83-1.61-1.98-2.85-3.45-3.71-1.47-.86-3.18-1.29-5.11-1.29s-3.65.43-5.13,1.29c-1.49.86-2.65,2.1-3.48,3.71-.83,1.61-1.24,3.49-1.24,5.64s.41,4.04,1.24,5.66c.83,1.63,1.99,2.88,3.48,3.75,1.49.87,3.2,1.31,5.13,1.31s3.64-.44,5.11-1.31Z"/>
      <path class="st1" d="M377.28,97.67c1.43-2.5,3.38-4.45,5.85-5.85,2.47-1.4,5.24-2.1,8.31-2.1,3.59,0,6.74.92,9.44,2.76,2.7,1.84,4.59,4.39,5.66,7.64h-7.41c-.74-1.53-1.77-2.69-3.11-3.45-1.34-.77-2.88-1.15-4.63-1.15-1.87,0-3.54.44-5,1.31-1.46.87-2.59,2.11-3.41,3.71-.81,1.6-1.22,3.47-1.22,5.62s.41,3.98,1.22,5.59c.81,1.61,1.95,2.85,3.41,3.73,1.46.87,3.12,1.31,5,1.31,1.75,0,3.29-.39,4.63-1.17,1.34-.78,2.37-1.94,3.11-3.48h7.41c-1.07,3.28-2.95,5.84-5.64,7.67-2.69,1.83-5.84,2.74-9.46,2.74-3.07,0-5.84-.7-8.31-2.1-2.47-1.4-4.42-3.34-5.85-5.82-1.43-2.49-2.14-5.31-2.14-8.47s.71-5.99,2.14-8.49Z"/>
      <path class="st1" d="M425.92,120.48c-2.52-1.41-4.51-3.37-5.98-5.87-1.47-2.5-2.21-5.33-2.21-8.49s.74-5.95,2.21-8.45c1.47-2.5,3.47-4.46,5.98-5.87,2.52-1.41,5.28-2.12,8.29-2.12s5.81.71,8.31,2.12c2.5,1.41,4.48,3.37,5.94,5.87,1.46,2.5,2.19,5.32,2.19,8.45s-.73,5.99-2.19,8.49c-1.46,2.5-3.45,4.46-5.96,5.87-2.52,1.41-5.28,2.12-8.29,2.12s-5.77-.71-8.29-2.12ZM439.31,115.53c1.47-.87,2.62-2.13,3.45-3.75.83-1.63,1.24-3.51,1.24-5.66s-.41-4.03-1.24-5.64c-.83-1.61-1.98-2.85-3.45-3.71-1.47-.86-3.18-1.29-5.11-1.29s-3.65.43-5.13,1.29c-1.49.86-2.65,2.1-3.48,3.71-.83,1.61-1.24,3.49-1.24,5.64s.41,4.04,1.24,5.66c.83,1.63,1.99,2.88,3.48,3.75,1.49.87,3.2,1.31,5.13,1.31s3.64-.44,5.11-1.31Z"/>
      <path class="st1" d="M469.01,90.14v19.89c0,2.18.57,3.84,1.7,4.99,1.13,1.15,2.73,1.73,4.79,1.73s3.7-.58,4.83-1.73c1.14-1.15,1.7-2.81,1.7-4.99v-19.89h6.49v19.84c0,2.73-.59,5.04-1.77,6.93-1.18,1.89-2.76,3.31-4.74,4.26-1.98.95-4.18,1.43-6.61,1.43s-4.56-.48-6.51-1.43c-1.95-.95-3.49-2.37-4.63-4.26-1.14-1.89-1.7-4.2-1.7-6.93v-19.84h6.44Z"/>
      <path class="st1" d="M529.45,122.27h-6.44l-14.59-22.05v22.05h-6.44v-32.18h6.44l14.59,22.1v-22.1h6.44v32.18Z"/>
      <path class="st1" d="M543.6,97.67c1.43-2.5,3.38-4.45,5.85-5.85,2.47-1.4,5.24-2.1,8.31-2.1,3.59,0,6.74.92,9.44,2.76,2.7,1.84,4.59,4.39,5.66,7.64h-7.41c-.74-1.53-1.77-2.69-3.11-3.45-1.34-.77-2.88-1.15-4.63-1.15-1.87,0-3.54.44-5,1.31-1.46.87-2.59,2.11-3.41,3.71-.81,1.6-1.22,3.47-1.22,5.62s.41,3.98,1.22,5.59c.81,1.61,1.95,2.85,3.41,3.73,1.46.87,3.12,1.31,5,1.31,1.75,0,3.29-.39,4.63-1.17,1.34-.78,2.37-1.94,3.11-3.48h7.41c-1.07,3.28-2.95,5.84-5.64,7.67-2.69,1.83-5.84,2.74-9.46,2.74-3.07,0-5.84-.7-8.31-2.1-2.47-1.4-4.42-3.34-5.85-5.82s-2.14-5.31-2.14-8.47.71-5.99,2.14-8.49Z"/>
      <path class="st1" d="M592.06,90.14v32.13h-6.44v-32.13h6.44Z"/>
      <path class="st1" d="M612.08,117.16h10.59v5.11h-17.03v-32.13h6.44v27.02Z"/>
    </g>
  </g>
</svg>